<svg width="256" height="256" viewBox="0 0 256 256" fill="none" xmlns="http://www.w3.org/2000/svg">
<rect width="256" height="256" fill="none"/>
<g filter="url(#filter0_d_1_2)">
<rect x="66" y="27" width="124" height="202" rx="15" fill="#6F2800"/>
<rect x="66.5" y="27.5" width="123" height="201" rx="14.5" stroke="black"/>
</g>
<path d="M126.2 176.728C120.056 176.728 114.776 175.576 110.36 173.272C105.944 170.872 102.296 167.464 99.416 163.048C96.536 158.632 94.424 153.208 93.08 146.776C91.736 140.344 91.064 133 91.064 124.744C91.064 116.584 91.736 109.288 93.08 102.856C94.424 96.328 96.536 90.856 99.416 86.44C102.296 82.024 105.944 78.664 110.36 76.36C114.776 73.96 120.056 72.76 126.2 72.76C132.344 72.76 137.624 73.96 142.04 76.36C146.456 78.664 150.104 82.024 152.984 86.44C155.864 90.856 157.976 96.328 159.32 102.856C160.664 109.288 161.336 116.584 161.336 124.744C161.336 133 160.664 140.344 159.32 146.776C157.976 153.208 155.864 158.632 152.984 163.048C150.104 167.464 146.456 170.872 142.04 173.272C137.624 175.576 132.344 176.728 126.2 176.728ZM126.2 166.216C130.232 166.216 133.688 165.448 136.568 163.912C139.448 162.28 141.752 160.024 143.48 157.144C145.304 154.264 146.648 150.808 147.512 146.776C148.376 142.648 148.808 138.04 148.808 132.952V116.536C148.808 111.544 148.376 106.984 147.512 102.856C146.648 98.728 145.304 95.224 143.48 92.344C141.752 89.464 139.448 87.256 136.568 85.72C133.688 84.088 130.232 83.272 126.2 83.272C122.168 83.272 118.712 84.088 115.832 85.72C112.952 87.256 110.6 89.464 108.776 92.344C107.048 95.224 105.752 98.728 104.888 102.856C104.024 106.984 103.592 111.544 103.592 116.536V132.952C103.592 138.04 104.024 142.648 104.888 146.776C105.752 150.808 107.048 154.264 108.776 157.144C110.6 160.024 112.952 162.28 115.832 163.912C118.712 165.448 122.168 166.216 126.2 166.216ZM126.2 133.24C122.84 133.24 120.488 132.568 119.144 131.224C117.896 129.88 117.272 128.248 117.272 126.328V123.16C117.272 121.24 117.896 119.608 119.144 118.264C120.488 116.92 122.84 116.248 126.2 116.248C129.56 116.248 131.864 116.92 133.112 118.264C134.456 119.608 135.128 121.24 135.128 123.16V126.328C135.128 128.248 134.456 129.88 133.112 131.224C131.864 132.568 129.56 133.24 126.2 133.24Z" fill="white"/>
<defs>
<filter id="filter0_d_1_2" x="62" y="27" width="132" height="210" filterUnits="userSpaceOnUse" color-interpolation-filters="sRGB">
<feFlood flood-opacity="0" result="BackgroundImageFix"/>
<feColorMatrix in="SourceAlpha" type="matrix" values="0 0 0 0 0 0 0 0 0 0 0 0 0 0 0 0 0 0 127 0" result="hardAlpha"/>
<feOffset dy="4"/>
<feGaussianBlur stdDeviation="2"/>
<feComposite in2="hardAlpha" operator="out"/>
<feColorMatrix type="matrix" values="0 0 0 0 0 0 0 0 0 0 0 0 0 0 0 0 0 0 0.25 0"/>
<feBlend mode="normal" in2="BackgroundImageFix" result="effect1_dropShadow_1_2"/>
<feBlend mode="normal" in="SourceGraphic" in2="effect1_dropShadow_1_2" result="shape"/>
</filter>
</defs>
</svg>
